<?xml version='1.0' encoding='utf-8'?>
<svg xmlns="http://www.w3.org/2000/svg" enable-background="new 0 0 2573.687 581.716" version="1.1" viewBox="0 0 2573.7 581.72"> <path d="m694.29 43.988c0.391 0.397 0.391 0.397 0 0"/> <path d="m1702.9 51.093c-1.08 2.11 2.277 0.118 0 0"/> <path d="m1721 60.843c-1.08 2.11 2.277 0.119 0 0"/> <path d="m1898.6 81.742c-1.086 2.103 2.278 0.118 0 0"/> <path d="m1691.9 83.108c0.376 0.404 0.376 0.404 0 0"/> <path d="m1870.8 84.499c0.376 0.404 0.376 0.404 0 0"/> <path d="m1889 89.284c0.097 2.291 2.082-1.073 0 0"/> <path d="m2418.8 195.89c0.369 0.397 0.369 0.397 0 0"/> <path d="m16.349 216.69c0.118 2.285 2.104-1.08 0 0"/> <path d="m21.902 225.84c0.397 0.397 0.397 0.397 0 0"/> <path d="m2417.4 227.94c0.369 0.39 0.369 0.39 0 0"/> <path d="m16.231 229.34c-1.08 2.104 2.292 0.139 0 0"/> <path d="m2417.4 234.21c0.369 0.397 0.369 0.397 0 0"/> <path d="m39.921 247.47c-1.08 2.097 2.292 0.119 0 0"/> <path d="m31.671 255.71c0.132 2.285 2.111-1.08 0 0"/> <path d="m2382.6 284.37c0.37 0.397 0.37 0.397 0 0"/> <path d="m2390.1 286.48c-1.086 2.112 2.272 0.119 0 0"/> <path d="m2467.5 292.06c-1.094 2.104 2.272 0.118 0 0"/> <path d="m2459.8 315.75c-1.108 2.097 2.264 0.125 0 0"/> <path d="m1698.8 536.49c0.376 0.397 0.376 0.397 0 0"/> <path d="m2565.4 342.72c-5.216 0.132-10.447-0.327-15.628 0.202-2.479 0.78-5.049 0.731-7.584 0.46-0.104 0.592-0.32 1.776-0.432 2.368-2.208-1.038-5.049-1.992-4.93-4.938 1.114-0.515 2.291-1.01 3.461-1.504-0.46-3.294-0.244-6.644-0.85-9.91-4.673 0.975-9.465 0.843-14.193 0.794-2.222 0.07-4.199-1.003-6.226-1.664 0.209 1.059 0.48 2.117 0.766 3.183-9.094-5.406-7.077 3.907-7.041-61.418-38.193-0.699-41.497-1.245-46.104-0.021 0.773 5.077 1.024 10.196 0.829 15.328-4.186 0.014-8.357 0.014-12.522 0-0.104-4.603 0.327-9.242-0.397-13.81-0.729 0.118-28.329-0.113-28.846-0.118-0.494-5.488 0.676-10.885 1.908-16.185 2.208-1.254 4.687-1.985 6.895-3.287-2.117-0.606-4.297-0.78-6.456-0.905-0.014-2.57-0.091-5.14 0.021-7.703 0.724 2.089 1.114 4.276 1.33 6.484 0.425 0.028 1.275 0.077 1.699 0.104-0.947-2.542-1.323-5.251-2.396-7.744 0.537-0.063 1.616-0.188 2.159-0.251-1.372-1.852-2.744-3.803-2.932-6.17-0.273-3.825-0.285-34.55-0.285-34.55-0.46-2.981-1.177-5.996-0.704-9.019 0.94-1.275 2.263-2.208 3.399-3.329-1.128 0.139-2.215 0.285-3.28 0.432-0.028-2.89-0.035-5.787 0.439-8.65-1.267 1.435-2.939 2.305-4.799 2.605 0.606 0.759 1.247 1.511 1.915 2.277-1.177-0.397-2.305-0.878-3.51-0.968-0.028 1.351 0.181 2.681 0.369 4.025-2.236-0.446-4.485-0.752-6.734-0.857-0.397-0.891-0.766-1.776-1.094-2.667-0.961 0.014-1.887 0.035-2.786 0.056 0.265 1.539 0.529 3.106 1.114 4.583 1.26 1.031 2.89 1.49 4.36 2.215-1.316 14.625 0.411 29.369-0.759 44.008 0.794 0.515 1.595 1.031 2.444 1.56-0.16 4.374-0.877 8.712-0.724 13.1-1.769-0.327-3.524-0.648-5.272-0.871-0.327 0.689-0.626 1.379-0.898 2.068 1.741 0.627 3.503 1.288 5.237 2.027-0.933 5.829-0.174 11.728-0.188 17.592-2.417 0.028-4.813 0.035-7.201 0.042 7e-3 3.712 0.271 7.487-0.627 11.136-13.226-0.014-26.45-7e-3 -39.669-7e-3 0.049-4.861-1.351-9.66-0.641-14.521 0.924-6.12 0.23-3.829-0.139-25.74-0.529-0.07-1.581-0.202-2.103-0.265-0.083-5.53 0.439-11.122-0.794-16.561-9.074-0.022-105.06-4.213-105.06-4.213-0.042-3.489-0.195-7.013 0.599-10.44-6.103 0-115.07-1.112-126.42 0.146-1.325 0.711-0.901 1.384-0.926 12.396-4.958 0.029-21.004 0.55-24.375 1.414-0.014-9.987 7e-3 -19.974-7e-3 -29.961-3.239-7e-3 -6.463-7e-3 -9.68-7e-3 0.118-4.903-1.045-9.722-0.801-14.625-4.792 0.286-9.541-0.432-14.312-0.383-2.583-28.09 6.852-22.86-15.586-23.303-0.111-18.545 0.301-19.396-0.47-20.347h-99.127c-0.015 25.673 3.364 19.491-13.58 20.668-3.751 4.711-10.6-1.275-36.862 2.187-1 0.144-26.177 1.513-38.924 1.685-0.07-8.601 0.216-17.202-0.035-25.796-0.261-3.741 8.937-8.222 34.557-31.841 1.79-1.79 3.886-3.225 5.996-4.631 0.278-6.414 0.139-12.835 0.077-19.249-6.094 0.16-12.271-0.578-18.289 0.627-1.205-2.354-0.613-4.819-0.125-7.25-0.933-2.633-5.411-1.839-5.251 1.031 0.634 2.145 1.881 4.039 2.939 5.996-8.459 1.312-5.686 5.213-9.729 0.432-0.683-0.049-1.337-0.097-1.964-0.139-0.438 0.898-0.835 1.804-1.219 2.702-2.154-0.069-20.485 1.066-21.178 1.184-2.849 0.564-5.669-0.508-8.517-0.404-23.401-1.277-16.598 17.575-17.467-48.026h-2.047c-0.099 56.029 1.048 47.565-2.626 49.858-0.632-8.531 2.544-20.149-2.682-21.004-1.299-0.218-13.108-1.351-17.104 0.892 0.035-0.745 0.09-1.497 0.167-2.242 1.302-0.397 2.604-0.836 3.914-1.33-1.059-0.293-2.11-0.543-3.155-0.773-0.056-0.425-0.16-1.274-0.216-1.699-0.516 0-1.539 0-2.055-7e-3 -0.369 4.179 0.251 8.357 0.077 12.543-5.869-1.289-11.906-0.526-17.853-0.715-0.239-0.95-0.223-0.884-0.462-1.834 0.7-0.415 1.445-0.832 2.207-1.24-0.982-2.883 0.313-5.641 1.017-8.413-0.822-0.383-1.616-0.766-2.389-1.156 0.216 1.135 0.432 2.277 0.627 3.426-3.694-2.336 0.941-5.611 1.762-9.917-0.648-0.348-1.281-0.689-1.881-1.045-0.139 1.337-0.467 2.639-0.905 3.893-0.25-2.719-1.575-3.962 4.701-13.636 0.697-0.878 0.244-2.006 0.223-3.009-1.316 0.941-2.603 1.905-3.914 2.829-0.751-0.683-0.628-0.571-1.379-1.254 0.94-1.665 1.901-3.322 2.967-4.917-0.571-0.996-1.135-1.992-1.672-2.988-0.647 0.543-1.274 1.1-1.867 1.657-0.021-0.884-0.028-1.769-7e-3 -2.653 0.641 0.202 1.309 0.397 1.999 0.592 0.683-1.574 1.316-3.169 1.803-4.826-0.494-7e-3 -1.49-0.021-1.985-0.035-0.564 1.073-1.135 2.131-1.748 3.148 0.049-1.88 0.585-3.74 0.438-5.627-0.55-0.752-1.198-1.428-1.776-2.117-0.167 3.12-0.125 6.247-0.104 9.367-0.877-0.446-1.741-0.884-2.591-1.309 0.418 1.386 0.885 2.751 1.309 4.144 0.522-0.474 1.066-0.947 1.636-1.414-1.557 4.716-5.977 5.117-4.241 7.264 1.498 1.762 2.786 3.684 2.689 6.122-1.776-1.156-3.663-2.159-5.76-2.514 0.557 3.454 0.843 6.95 1.135 10.44-1.518 0.202-3.036 0.272-4.499 0.578 1.044 1.504 3.169 0.961 4.756 1.302-0.021 0.557-0.056 1.678-0.077 2.236-0.669-0.578-1.316-1.163-1.929-1.755-1.295 1.623-2.277 3.447-3.231 5.272-0.676-11.244 0.657-7.472 1.609-12.146-0.279-1.476-0.891-2.855-1.358-4.262-1.894 0.286-3.991 0.049-5.627 1.163-0.885 1.574-0.829 3.566 0.209 5.056 1.971 2.876 1.065 6.505 1.226 9.764-2.242 0.494-4.513 0.808-6.783 0.954-0.035-0.543-0.104-1.637-0.132-2.18 0.627 0.202 1.275 0.411 1.95 0.62 0.279-0.71 0.578-1.414 0.912-2.117-0.947-7e-3 -1.873-0.014-2.771-0.028-0.035-1.428-0.049-2.862-0.042-4.29-0.299 0.216-0.906 0.662-1.205 0.877 0.202 0.85 0.411 1.692 0.648 2.549-0.55 0.084-1.644 0.251-2.194 0.334-0.042 1.518-0.077 3.037-0.105 4.562-1.163 0.042-2.319 0.091-3.433 0.146-1.463-5.896-0.114-9.389-0.669-27.781-0.251-2.981 3.677-1.95 5.551-2.27 0.035-0.411 0.118-1.233 0.16-1.644-5.077 0.996-10.384-0.495-15.322 1.191 1.873 1.456 4.283 1.33 6.54 1.546-0.488 1.414-1.316 2.633-2.389 3.642-0.843 8.559 2.166 17.153 0.32 25.65-5.035 0.446-10.091 0.286-15.099 0.878 0.537-7.807 0.167-15.67-0.647-23.449-0.313-3.851 0.745-7.668 0.271-11.519 1.344 0.557 2.667 1.198 4.005 1.839-0.32-1.637 0.543-4.018-1.17-5.028-0.39 0.975-0.71 1.964-1.17 2.89-2.55 0.655-1.938-3.513-1.922-9.792 0.341 0 1.017-7e-3 1.358-7e-3 0 2.222-0.125 4.45 0.181 6.658 0.39 0.063 1.163 0.188 1.553 0.251-0.167-0.871-0.306-1.741-0.418-2.619 0.571-0.028 1.706-0.091 2.277-0.118-0.738-0.752-1.518-1.449-2.103-2.298-0.362-2.667 0.32-5.321 0.446-7.974-1.483 1.33-2.006 3.245-2.389 5.112-1.024 0.16-2.034 0.306-3.009 0.453-0.223 3.433 0.676 7.097-0.703 10.342-1.114-0.383-2.166-0.891-3.211-1.358-0.077 0.634-0.112 1.274-0.104 1.915 1.066 0.843 2.507 0.731 3.809 0.975-0.452 2.319-0.083 4.659 0.244 6.964-1.191-0.578-2.347-1.184-3.496-1.769-7e-3 0.557-0.028 1.671-0.035 2.229 1.142 0.028 2.312 0.063 3.503 0.097-0.014 2.605-0.021 5.209-0.021 7.821-1.003-0.787-1.901-1.692-2.988-2.319-3.231 0.202-6.191 1.832-9.04 3.238 1.142 2.417 1.163 5.363 2.876 7.487 3.19-2.57 5.634-5.968 9.019-8.336 0.282 4.247-0.127 8.532 0.591 12.753-0.584 0.17-0.397 0.115-0.981 0.285-1.142-2.528-1.985-5.209-2.047-8.002-0.592 0.383-1.163 0.766-1.713 1.142 0.87 4.067 2.222 7.995 3.587 11.916-5.92 1.379-12.063 0.968-18.073 1.595 1.551-22.861 1.663-16.434 0.578-23.331 1.783 0.613 3.426 1.623 4.29 3.385 0-0.501-0.014-1.504-0.014-2.006 5.818 0.844 5.991 1.517 9.318-1.901-4.708-3.148-10.516-1.866-15.76-2.869-3.593-0.648-7.236-0.745-10.816-0.077-0.369 0.912-0.732 1.825-1.045 2.744 3.085 1.532 6.721 0.766 9.806 2.222 1.114 2.082-0.063 4.186-0.752 6.17 1.149-0.446 2.305-0.919 3.496-1.358-0.71 0.843-1.365 1.72-2.187 2.424-1.072 0.174-2.138 0.174-3.169 0.216 1.149 0.878 2.089 1.985 2.89 3.197-0.718 0.724-1.386 1.449-2.068 2.159 1.483 2.013 2.611 9.178-0.773 9.346-4.081 0.432-8.19 0.446-12.271 0.78 0.122-1 0.96-25.168-0.404-30.88-0.564 0.425-1.072 0.857-1.581 1.281-0.648-1.128-1.393-2.18-2.249-3.134-0.153 1.038-0.279 2.075-0.362 3.113 0.926 0.355 1.874 0.724 2.841 1.086-0.097 3.517 0.021 7.041 0.697 10.495-1.511-0.55-2.981-1.177-4.457-1.748 0.641 1.393 1.358 2.751 2.145 4.081-0.321 0.216-0.961 0.655-1.282 0.877 0.042 0.453 0.125 1.358 0.174 1.818 1.302 0.62 2.626 1.247 3.914 1.95-2.236 0.578-4.478 1.052-6.748 1.337-0.014 1.226 0 2.451 0.035 3.677 2.208 1.163 3.67 3.127 4.025 5.62 0.648 0.139 1.33 0.272 2.027 0.404-1.957 0.139-3.259 1.435-3.775 3.259-0.989 0.042-1.971 0.084-2.918 0.132 0.146-0.404 0.446-1.205 0.599-1.609-4.282 2.233-0.14 1.3-14.458 1.546-0.174 3.148-0.933 6.219-1.156 9.36-1.24 0.272-2.472 0.522-3.656 0.801 0.557 1.01 1.337 1.887 2.396 2.431 1.532 3.907 2.765 8.106 2.193 12.348-0.035 2.061-2.73 1.17-4.067 1.595-1.643-0.299-1.95 1.539-2.611 2.591-0.313-0.898-0.634-1.783-0.933-2.667-0.877-7e-3 -1.741-0.021-2.584-0.028-0.125 0.613-0.383 1.839-0.508 2.458-1.539-1.066-3.064-2.145-4.68-3.05-0.882-13.563 0.28-11.708-1.692-14.569-0.348 5.975 0.46 11.972-0.307 17.94-0.933 0.021-1.839 0.042-2.73 0.056-3.014-51.58-2.179-47.696-3.9-50.032-0.607 7.392 2.44 33.993 1.762 50.039-2.089 0.139-4.165 0.244-6.233 0.202-4.611-53.651-3.284-49.58-5.265-52.288-0.528 7.368 3.714 38.293 3.106 52.588-5.376-0.125-10.913 0.898-16.178-0.376-2.235-1.414-4.38 0.766-6.699 0.557-7.981-7e-3 -15.962 0.021-23.936-0.042 1.246-2.082 2.444-4.234 2.995-6.63-1.4-0.251-2.772-0.571-4.165-0.536-2.702 2.305 0.912 5.558 0.23 8.239-0.55 1.086-1.365 2.047-1.651 3.238-0.028 2.11 1.191 3.998 1.226 6.101-0.028 2.925 0.146 5.843 0.292 8.761 1 0.738 34.453 26.242 39.202 30.142-2.402 0.146-4.958-0.097-7.068 1.268 2.152 0.258 4.353 0.174 6.518 0.481 1.47 0.731 0.871 2.612 0.989 3.942 0.265 1.713-1.671 2.403-2.967 2.821-1.595 0.488-2.459-1.128-3.364-2.068-7e-3 0.481-0.035 1.435-0.042 1.915-0.522 0.091-1.56 0.265-2.076 0.348 0.021 0.425 0.056 1.275 0.077 1.706 5.133 2.633 10.934 3.733 15.809 6.93-3.386 0.367-35.742 1.468-40.916 2.472-7e-3 11.087 7e-3 22.181-7e-3 33.276-3.963-0.104-7.946-0.049-11.825 0.808-0.021 8.044 0 16.088-7e-3 24.138-4.597 0.877-9.27 0.954-13.922 0.829-7e-3 7.988-0.035 15.976 0.014 23.964-5.272-0.655-10.586 0.035-15.858-0.411-1.31-1.339-0.775 3.998-0.884-96.786h-117.6c-0.188 0.739-0.066 12.982-0.096 23.758-4.437-0.23-8.81 0.474-13.204 0.85-0.056 2.138 0.209 4.346-0.411 6.421-5.328 1.428-10.878 1.121-16.324 1.114-0.021 5.759-7e-3 11.519-7e-3 17.285-3.496 0.195-6.95 0.87-10.446 0.926 0.146 12.027-0.313 24.076 0.244 36.089-2.215-0.536-4.464-1.247-6.755-0.94-6.63 0.745-13.372-0.446-19.925 1.052-0.07-14.883-7e-3 -29.773-0.035-44.655-79.773-2.069-86.183-2.985-93.608-1.463-0.67-5.135-0.344-3.574-0.411-47.984-4.875-0.014-9.743 0-14.611-7e-3 -0.057-22.097 0.2-22.557-0.372-25.93-127.58 0-137.91-0.13-144.09 0.441-4.696 0.188 1.593 25.336-2.054 27.356-4.548 0.432-9.095 1.073-13.671 0.961-7e-3 9.026 0.014 18.052-7e-3 27.07-4.562 1.135-9.276 0.696-13.915 0.731 0.209-5.996-0.641-12.097 0.738-17.996-11.114 1.825-80.359-3.119-97.543-1.567-5.362 7e-3 -10.648 1.135-16.018 0.78-0.014-4.415-7e-3 -8.824-0.014-13.232-2.693-0.076-106.02-0.056-107.02-0.056 0.674 5.763 0.424 5.888 0.48 53.041-4.457 1.093-9.095 0.279-13.58 1.205 0.402 2.856 0.32 26.362 0.362 29.577-24.445 0.899-11.204-0.643-42.859 0.501 0.78 4.548-0.279 9.116-0.188 13.685-1.414-0.237-2.828-0.439-4.241-0.613-0.091-0.954-0.167-1.901-0.244-2.848-1.114-0.655-2.173-1.365-3.183-2.145 0.926-0.676 1.894-1.316 2.848-1.978-1.247 0.265-2.472 0.585-3.691 0.905-7e-3 2.291-7e-3 4.59 0 6.888-3.726-0.947-7.452 0.293-11.199 0.313-2.73 0.279-5.467 0.021-8.197-0.097 0.188-0.167 0.564-0.501 0.752-0.669 1.477 0.181 3.078 1.086 4.52 0.327 0.181-0.884 0.313-1.776 0.418-2.667-1.706 0.71-3.461 1.476-5.328 0.989-0.571-1.992-0.279-5.098-2.772-5.69-1.769-0.606-3.573 0.209-5.3 0.494-0.529-2.424 0.717-5.85-1.678-7.445-2.786-0.404-5.593-0.035-8.371 0.056 0.042-2.047 0.864-4.52-0.738-6.191-2.918-0.306-5.85-0.014-8.768-0.049-0.014-12.383 7e-3 -24.765-7e-3 -37.141-22.287-0.064-28.63-0.912-28.63-0.912-0.72-9.077 0.544-20.876-1.191-25.677-7.988-23.428-5.975 1.619-4.534-105.5-2.403-0.205-23.909-1.079-23.909-1.079-1.364-0.74-0.854-1.502-0.926-14.507-2.215 0.327-5.168-0.857-6.818 0.947-0.418 4.596-7e-3 9.221-0.167 13.831-0.892-0.306-1.762-0.613-2.639-0.912 0.961-4.576 0.48-9.276 0.557-13.915-1.379 0.028-2.751 0-4.109 0.167-1.832 0.237-3.489 1.532-5.397 1.1-10.574-1.943-26.055 1.838-27.203 1.985-0.132 1.72-0.202 3.447-0.272 5.175h-1.191c-0.098-1.748-0.056-3.524-0.474-5.23-2.166-0.543-4.415-0.341-6.609-0.369-0.174 4.276 0.439 8.629-0.341 12.863-6.642 1.181-19.447 2.01-19.447 2.01v56.087h-158.87c-4.079 1.735 0.486 0.341-1.81 28.547-2.363 0.437-64.339 5.534-64.678 5.62 0.014 9.297 7e-3 18.595 7e-3 27.899-3.97-0.153-7.932 0.167-11.839 0.857 0.348 10.008-0.926 19.953-1.079 29.947-3.997 0.808-8.093 0.306-12.132 0.564-0.049-5.342-7e-3 -10.683-0.028-16.018-127.91-2.696-102.3-3.478-118.14-1.901-1.477 0.633-0.814 1.876-0.947 14.43h-4.875c0.216-28.115 0.683-56.23 1.066-84.338-33.094-0.912-66.203-1.393-99.311-2.103-9.086-0.33-97.814 10.394-98.817 10.579-0.049 29.02-0.014 58.048-0.014 87.068-3.573 0.975-7.285 0.411-10.92 0.766-1.427 0.791-0.814 0.136-0.945 29.323-0.931 0.218-0.794 0.186-1.724 0.404-0.431-0.862-0.876-1.711-1.335-2.552 0.091 1.156 0.209 2.319 0.313 3.482-1.49 0.265-3.016 0.334-4.464-0.174-2.194 0.634-4.478 0.787-6.748 0.843-1.569-5.162 0.906-11.707-0.724-25.956-3.587-0.488-8.044 2.27-10.899-0.857-0.258-1.644-0.223-3.315-0.279-4.973-1.01-0.497-4.929-4.208-12-2.075-1.254 4.074-0.926 8.434-2.096 12.522-1.328 1.607-3.131 2.739-4.672 4.138 0.526 0.983 0.468 0.875 0.994 1.858 1.31-0.306 2.619-0.62 3.936-0.913 0.299 93.846-1.393 105.01-1.393 105.01-6.16 2.899-5.21 2.222-4.31 15.914 1.841 28.024-1.137 57.031 4.816 82.237 6.315 26.738 30.073 75.199 57.305 76.354-0.635 5.035 1.654 11.181 1.077 14.776-2.273 14.139 8.894 26.885 23.214 26.885 833.55 23.579 1629.7 26.269 2374.2 0 8.851 0 16.027-7.176 16.027-16.027-0.112-0.22-0.223-0.44-0.329-0.659 0.091-0.019 0.205-0.042 0.329-0.068 0-67.111-6.59-87.878 30.94-128.9 3.524 2.716 7.445 6.505 12.327 5.007-0.523 0.947-1.031 1.901-1.497 2.855 1.971 1.873 4.799 2.639 7.466 2.458 3.44-2.431 5.502-6.163 7.96-9.478-4.28-6.355-2.787-5.463-2.166-22.056-1.386 1.616-2.061 3.642-2.57 5.669-1.08-1.01-3.21-2.479-1.915-4.06 32.194-28.874 27.634-27.576 31.089-34.571 1.492-5.002 1.59-0.837-0.357-7.706zm-673.08-259.44c0.502 1.435 0.906 2.918 1.372 4.381-0.369 0.244-1.114 0.738-1.483 0.982-0.021-1.79-0.049-3.58 0.111-5.363zm-5.669 2.452h1.393c-0.021 0.926-0.021 1.853 0 2.786h-1.393c-0.028-0.934-0.028-1.86 0-2.786zm-147.8-39.161c-1.1 0.836-2.006-1.093-1.072-1.769 1.058-0.835 1.95 1.087 1.072 1.769zm-88.823 110.16c-1.442 0.021-2.856 0.035-4.255 0.042-0.063-1.978-0.188-3.949-0.529-5.899 2.353 1.156 5.16 2.793 4.784 5.857zm-1637.6 71.461c-0.94-0.146-1.107-0.634-0.488-1.476 0.941 0.139 1.108 0.626 0.488 1.476zm4.478 0c-0.536-0.815-0.536-2.061 0-2.869 1.01 0.118 1.003 2.751 0 2.869zm8.678-7.675c-0.801-1.595-0.892-3.385-1.184-5.112 0.341-0.244 1.024-0.724 1.372-0.968 0.014 2.027 0.041 4.061-0.188 6.08zm3.684 16.318c0.571 0.014 1.706 0.042 2.277 0.056-0.174 3.023-0.488 6.108 0.251 9.088-0.801 0.202-1.602 0.432-2.424 0.578-1.601-1.507-0.815-7.567-0.104-9.722zm2.778-0.348c0.947 0.564 1.992 1.066 2.653 1.992 0.286 2.465 0.091 4.952 0.104 7.431-0.522 0-1.56 7e-3 -2.075 7e-3 0.92-3.086 1.338-6.666-0.682-9.43zm0.335 11.588c0.515 1.393-3.28 1.894-2.242 0.167 0.717-0.536 1.469-0.592 2.242-0.167zm-1.052 8.594c-2.201-1.49-1.191-4.381-1.393-6.602 0.355 0.014 1.066 0.035 1.414 0.042-0.515 2.173-0.223 4.373-0.021 6.56zm3.482 25.288c-1.4 0.411-3.217 0.982-4.527 0.153 0.167-1.727 0.348-3.454 0.376-5.182 1.031-0.153 2.054-0.362 3.057-0.62-1.191-0.571-3.406-0.251-3.83-1.762 1.309-0.696 3.064-0.683 3.949-2.02-1.755-0.146-3.517-0.174-5.279-0.181 0.056-2.458-0.258-4.959 0.202-7.382 0.453-2.911 6.365-2.862 6.059 0.46 0.223 3.399-0.32 6.776-0.362 10.168-0.167 2.131 0.509 4.228 0.355 6.366zm-3.816-57.916c0.592 0.104 1.783 0.313 2.375 0.418 0.383 1.783 0.738 3.58 0.891 5.404-1.435 0.021-2.869 0.028-4.304 0.035 0.014-2.486-0.181-4.986 0.097-7.459 1.247-1.658 3.677-0.641 5.46-0.926 0 0.536 7e-3 1.595 7e-3 2.124-1.573-0.592-3.259-1.023-4.526 0.404zm12.32 22.238c0.634 0.369 1.254 0.78 1.852 1.226 0.251 2.465 0.077 4.952 0.077 7.431-0.857 0.028-1.713 0.063-2.57 0.097 0.696-2.863 0.717-5.829 0.641-8.754zm-2.765 3.461c1.003-0.118 0.975 1.616 0.376 2.089-1.003 0.118-0.975-1.623-0.376-2.089zm-2.131 4.046c0.662-0.801 2.284 0.195 1.651 1.114-0.683 0.759-2.348-0.153-1.651-1.114zm10.815 53.988c-3.594 0.313-7.208 0.035-10.809 0.118-0.077-7.354-0.306-14.73-0.014-22.077 0.195-0.202 0.592-0.599 0.787-0.801 3.392-0.251 6.811 0.049 10.196-0.425 0.132 0.118 0.397 0.369 0.529 0.487-0.295 21.586 1.044 21.742-0.689 22.698zm0.794-27.252c-0.195 0.195-0.592 0.592-0.787 0.794-2.974 0.188-5.975 7e-3 -8.9 0.71-2.309 1-2.75-1.916-1.929-19.89 1.163-1.63 3.496-0.662 5.195-0.905 0.676 0.864 1.358 1.727 2.082 2.549-0.077-0.481-0.23-1.449-0.313-1.929 1.24-1.073 3.524-2.291 4.638-0.418 0.23 6.344 0.209 12.738 0.014 19.089zm216.7-77.151v2.166c-2.222-0.132-4.819 0.564-6.595-1.163 2.082-0.947 4.352-1.045 6.595-1.003zm-7e-3 9.11c-1.846 0-3.684 0-5.53-0.014-0.035-0.474-0.098-1.414-0.132-1.88 1.873 0.696 3.837 0.453 5.683-0.209-7e-3 0.529-0.014 1.573-0.021 2.103zm-7e-3 -3.587c-1.978 0.063-3.949 0.195-5.885 0.606-0.551-2.478 0.824-1.31 5.989-2.375-0.028 0.439-0.083 1.323-0.104 1.769zm428.3-157.32c-0.467 0.035-1.4 0.098-1.86 0.132 0.515-2.082 0.523-4.241 0.536-6.372 0.341 0 1.01 7e-3 1.344 7e-3 1e-3 2.075-6e-3 4.157-0.02 6.233zm989.67 39c-0.035-2.305-0.035-4.617-0.021-6.93 0.341 0 1.024 0 1.365-7e-3 -0.021 2.361-0.083 4.757 0.515 7.062-0.459-0.028-1.392-0.09-1.859-0.125zm-0.424-12.236c0.759-0.606 1.866-0.55 2.841-0.641 1.358 1.107-2.653 1.894-2.841 0.641zm5.425-0.725c0.696-0.689 2.166-0.348 2.465 0.634-0.223 1.344-3.266 0.752-2.465-0.634zm4.206-0.508c0.16-0.801 0.348-1.595 0.564-2.389-3.454-1.052-7.006-0.251-10.489-0.884-0.021-0.926-0.021-1.852 7e-3 -2.772 6.481 1.434 5.552-1.606 12.48 1.337-0.521 1.755-0.646 3.879-2.562 4.708zm27.586-25.859c0.125 2.089 0.118 4.193 7e-3 6.289-2.159-1.595-1.379-4.457-7e-3 -6.289zm-2.396 21.555c-0.662-0.766-1.267-1.56-1.915-2.298-1.316 1.066-0.87 3.413-2.012 4.75-1.72 0.139-3.433 7e-3 -5.126-0.146-0.174-1.093-0.306-2.194-0.404-3.294l-0.62-0.014c0.063 1.407 0.174 2.807 0.244 4.22-2.695-0.132-5.383-0.251-8.072-0.077 0.139-1.337 0.752-2.507 1.456-3.642-0.077-0.898-0.446-1.741-0.634-2.605 1.302 1.233 2.98 1.288 4.673 0.926-0.891 0.836-1.846 1.609-2.758 2.382 0.578 0.745 1.059 1.797 2.215 1.658 0.759-1.24 0.933-2.709 1.351-4.081-0.509-0.536-0.989-1.079-1.448-1.623 3.601-1.191 7.452-0.731 11.171-1.288 0.091 0.564 0.285 1.699 0.383 2.27 1.247-1.052 2.577-2.02 4.109-2.667-1.269 1.657-2.397 3.405-2.613 5.529zm1.393-7.41c-0.641-0.738-0.118-1.999 0.669-2.417 1.218 0.223 0.599 3.023-0.669 2.417zm19.688 4.798c0.348 0.481 0.703 0.968 1.065 1.469-1.952 1.256-1.054 2.024-11.178 2.354 0.411-1.678 0.71-3.392 1.156-5.07-0.662-0.272-1.302-0.543-1.922-0.808-0.063 1.922-0.07 3.837-0.063 5.759-1.86 0-3.698 0-5.523-7e-3 0.459-2.27-0.16-4.492-0.808-6.651 1.407 0.864 2.828 1.776 4.541 1.915-0.495-0.745-0.975-1.47-1.477-2.187 4.102 0.167 8.19-0.397 12.306-0.411 0 0.954 0.028 1.915 0.077 2.869 0.461 0.197 1.374 0.58 1.826 0.768 0.098-1.323 0.202-2.646 0.292-3.977 0.536 0.021 1.595 0.049 2.131 0.063 0.245 1.902-0.57 3.329-2.423 3.914zm2.591-8.399c-0.696-0.439-1.309-1.518-0.814-2.277 1.079-0.397 1.977 2.034 0.814 2.277zm18.644-6.302c-0.049-2.89-1.094-6.595 1.957-8.343-0.154 2.736 0.473 6.504-1.957 8.343zm1.184 3.419c0.042 1.421 0.049 2.848 0.042 4.269-2.327-0.355-1.421-3.28-0.042-4.269zm-0.042-22.286c0.125 2.368 0.279 4.757 0.028 7.124-0.634 0.453-1.261 0.878-1.888 1.268 0.878-2.744-0.278-6.17 1.86-8.392zm-17.118 30.483c1.177 0.16 0.153 2.591-0.787 2.27-0.53-0.759-0.056-1.943 0.787-2.27zm0.411 4.583c-1.156 0.362-1.539-0.028-1.156-1.156 1.114-0.363 1.497 0.02 1.156 1.156zm4.401 0.787c-2.033-0.648-3.677-2.25-2.778-4.499 0.327-0.181 0.996-0.529 1.33-0.703-1.024-0.397-2.02-0.808-2.974-1.275 4.248-0.292 8.51-0.543 12.779-0.71-0.585 2.138-1.135 4.276-1.637 6.428-2.284-0.014-4.499 0.459-6.72 0.759zm12.57-2.758c-0.118-1.651-0.069-3.461-1.476-4.589-0.132 1.978-0.091 3.977 0.369 5.92-1.121 0.251-2.229 0.55-3.301 0.836 0.64-2.263 1.232-4.541 1.734-6.839 1.044-0.035 2.096-0.07 3.182-0.104 0.021 1.588 0.035 3.19 0.07 4.784l-0.578-8e-3zm0.453-11.45c-0.968-0.139-1.128-0.634-0.488-1.476 0.92 0.139 1.08 0.627 0.488 1.476zm1.999 6.561c1.26-0.063 2.549-0.125 3.858-0.167-1.094 0.975-2.117 2.006-3.023 3.127-0.313-0.982-0.598-1.964-0.835-2.96zm10.467 5.557c-2.577-0.014-5.167-0.07-7.682 0.494 0.23-0.564 0.481-1.128 0.76-1.692-0.474-0.467-0.919-0.926-1.351-1.393 0.634-0.655 1.288-1.309 1.984-1.936 0.105 1.393 0.202 2.786 0.355 4.172 0.675-0.954 1.337-1.936 1.992-2.925 0.738 0.195 1.497 0.383 2.277 0.564-0.404-1.233-0.892-2.417-1.449-3.566 2.041 0.752 4.137 1.33 6.282 1.797-0.932 1.588-2.074 3.03-3.168 4.485zm12.014-6.936h-1.393c-0.028-1.163-0.028-2.326 0-3.482h1.393c-0.021 1.163-0.021 2.319 0 3.482zm5.989-13.316c-1.024-0.251-2.013-0.487-2.967-0.836-0.501-0.878-0.857-1.825-1.177-2.765 1.686 0.801 3.023 2.125 4.144 3.601zm0.272 15.941c-0.989 1.33-2.236 2.43-3.28 3.691-0.773-1.003-2.055-2.006-1.518-3.426 0.626-2.577 0.94-5.279-0.119-7.793 0.676-0.975 1.351-1.957 2.041-2.946-0.335-1.435-0.585-2.883-0.648-4.353 1.268 0.919 2.521 2.242 2.869 3.809-0.759 1.567-1.699 3.05-1.623 4.875 0.466-0.16 1.399-0.481 1.866-0.641-1.845 1.978-2.089 4.715-2.417 7.264 1.407-1.003 1.804-2.667 2.054-4.283 0.865 1.08 0.942 2.48 0.775 3.803zm44.683 25.587c-0.112-1.518-0.133-3.029-0.139-4.541 0.39 7e-3 1.156 0.021 1.546 0.035-0.105 1.609-0.014 3.399-1.407 4.506zm8.838 1.393c-2.124-1.846-1.073-4.882-1.281-7.32h1.393c-1e-3 2.438 0.034 4.883-0.112 7.32zm7.779-1.051c-0.021-2.089-0.021-4.179-0.014-6.268h0.62c7e-3 2.117 0.16 4.241 0.773 6.282-0.348 0-1.031-0.014-1.379-0.014zm7.758-0.342c-0.167-2.096-0.202-4.206 0.021-6.303 0.787 2.062 1.734 4.43-0.021 6.303zm7.556-0.243c-0.021-1.671-0.021-3.336-7e-3 -5.007l0.55 0.035c0.132 1.393 0.327 2.786 0.634 4.158-0.292 0.201-0.877 0.612-1.177 0.814zm8.901-6.749c0.216 2.096 0.237 4.227 0 6.324-0.913-2.034-1.198-4.332 0-6.324zm528.85 200.55c0.912 0.139 1.073 0.634 0.488 1.476-0.975-0.146-1.135-0.64-0.488-1.476zm-2.075 24.884c1.1-0.369 1.49 0.014 1.156 1.156-1.163 0.362-1.546-0.028-1.156-1.156zm-11.93-24.647c1.268 0.167 3.768 0.035 3.455 1.992-1.177 0.39-2.348 0.717-3.49 1.072-0.021-1.031-7e-3 -2.047 0.035-3.064zm-12.257 25.998c1.24-0.425 2.535-0.745 3.872-1.003 0-0.474 7e-3 -1.421 7e-3 -1.894-1.177 0.299-2.326 0.606-3.454 0.878-0.049-0.933-0.063-1.859-0.042-2.786 1.386-0.153 2.814-0.341 4.221-0.648-0.049 2.291-0.049 4.582-0.056 6.881-1.665-0.07-3.448-8e-3 -4.548-1.428zm0.557 4.269c0.181-0.216 0.543-0.641 0.731-0.857 2.667-0.466-0.07 3.176-0.731 0.857zm4.011-10.663c-1.546-0.118-3.071-0.146-4.582-0.32 0.014-1.142 0-2.284-0.035-3.419 1.504-0.299 3.036-0.411 4.61-0.488-0.021 1.407-0.014 2.814 7e-3 4.227zm-4.387-19.43c0.473 0.745 0.968 1.504 1.553 2.229 0.467-0.55 0.954-1.1 1.456-1.664-7e-3 0.529-0.014 1.595-0.014 2.124-1.859 0.063-3.677 0.251-5.495 0.369-0.822-0.474-1.275-1.344-1.804-2.048 1.407-0.321 2.862-0.641 4.304-1.01zm2.305 4.84c0 0.355-7e-3 1.059-7e-3 1.414-2.221 7e-3 -4.436 0.021-6.623-0.111 1.63-1.992 4.38-1.136 6.63-1.303zm-3.148 22.007c-1.518 0.237-2.995 0.453-4.458 0.773-0.285-0.696-0.543-1.386-0.773-2.075 1.888-0.264 4.417-1.1 5.231 1.302zm-5.223-5.104c1.198-0.836 2.751-0.696 4.165-0.968-0.028 0.989-0.028 1.985 0 2.981-1.386-0.433-4.493 0.187-4.165-2.013zm3.614-6.575c0.383 1.428 0.557 2.897 0.697 4.381-1.393-0.272-3.35 0.501-4.144-0.996-0.153-0.78-0.251-1.553-0.286-2.326 1.226-0.334 2.473-0.697 3.733-1.059zm-5.808 13.024c-0.669-0.383-1.289-0.801-1.846-1.247 0.139-3.642 0.258-7.299-0.195-10.927 0.536-7e-3 1.609-0.021 2.152-0.028-0.041 4.067 0.098 8.141-0.111 12.202zm-3.05-29.641c0.167 1.449 0.641 2.835 1.142 4.213h-2.124c-0.063-1.072-0.077-2.131-0.077-3.197-0.397-0.237-1.191-0.717-1.581-0.961 0.85-0.027 1.727-0.048 2.64-0.055zm-2.347 6.623c0.884-0.641 1.873 0.982 1.114 1.651-0.996 0.689-1.915-0.968-1.114-1.651zm1.33 10.809c-7e-3 3.956-7e-3 7.904 0 11.86l-0.585-7e-3c-0.592-3.928-0.279-7.891-0.912-11.805 0.376-0.013 1.121-0.034 1.497-0.048zm-0.119 26.144c-1.929-1.658-1.26-4.381-1.274-6.602-0.125-1.038 0.662-1.741 1.274-2.472 0.175 3.015 0.175 6.052 0 9.074zm-0.592-10.091c-1.302-0.244-0.954-2.389 0.195-2.633 1.122 0.237 0.878 2.438-0.195 2.633zm2.821-1.915c0.613-0.453 1.281-0.87 1.999-1.254-0.014 1.17-0.014 2.333-7e-3 3.51-0.822-0.641-2.465-0.905-1.992-2.256zm2.013 14.618c-0.627-0.258-1.212-0.515-1.769-0.773 0.515-2.751-0.724-5.488-0.202-8.253 0.585-0.46 1.226-0.884 1.916-1.267 0.173 3.426 0.124 6.859 0.055 10.293zm6.101-15.51c0.425 0.648 0.85 1.316 1.267 2.013-1.88 0.077-3.74 0.091-5.572-0.014 1.233-0.954 2.57-2.277 4.305-1.999zm2.876 11.819c-1.95 0-3.893 7e-3 -5.794 0.132 1.344 1.964 3.58 1.038 5.46 0.564-0.912 2.368-3.35 3.071-5.655 2.918-0.23-3.684-1.351-7.34-0.738-11.045 0.679-1.093 0.742-1.024 10.531-0.857-0.162 3.176-2.189 5.711-3.804 8.288zm6.449-25.928c0.585 0.244 1.198 0.501 1.838 0.759-0.85 3.461-0.425 7.041-0.487 10.565h-1.393c-0.014-3.775-0.063-7.55 0.042-11.324zm0.773 29.8c-0.334-1.086-1.455-2.347-0.39-3.357 0.655-1.309 1.247 0.515 1.497 1.121 0.481 0.871-0.835 1.498-1.107 2.236zm7.124-40.282c1.184 0.195-0.467 1.72-1.037 1.567-1.059 0.042-2.076 0.063-3.072 0.042 0.467-1.964 2.389-2.848 4.109-1.609zm-0.8 10.69c-0.655 2.096-1.595 4.088-2.939 5.829-0.07-1.957-0.049-3.914-0.035-5.864 0.961 8e-3 1.957 0.015 2.974 0.035zm3.315 28.436c-2.138 0.028-4.255 0.174-6.282 0.773 0.369-3.858-0.961-8.12 0.933-11.672 1.707-0.237 3.587-0.85 5.258 0 0.543 3.635-0.697 7.291 0.091 10.899zm-3.817-13.037c0.334-0.773 0.739-1.511 1.226-2.222 1.205-0.272 2.117 0.599 2.967 1.358-1.365 0.508-2.786 0.759-4.193 0.864zm2.528-5.558c1.1-0.369 1.49 0.014 1.156 1.156-1.163 0.362-1.546-0.028-1.156-1.156zm-0.195-22.091c-0.014-1.532 0.07-3.141 1.379-4.172 0.307 0.954 0.787 1.915 0.829 2.967-0.745 0.439-1.477 0.836-2.208 1.205zm5.641 40.776c-0.341 0-1.037 0-1.379 7e-3 -0.021-3.259-0.021-6.505 0-9.757h1.379v9.75zm7e-3 -13.232h-2.089c-0.028-0.933-0.028-1.86 0-2.786h2.089c-0.028 0.927-0.028 1.853 0 2.786zm-0.111-3.823c-3.732-1.016-1.551-8.476-0.021-9.109 0.202 3.036 0.167 6.079 0.021 9.109zm2.2 1.88c0.759-0.641 1.762-0.829 2.744-1.107-0.021 1.1-0.021 2.201 0 3.308-1.135-0.376-3.273-0.516-2.744-2.201zm0.836 12.097c-0.223-2.688-0.167-5.376-0.118-8.065h1.957c-0.571 2.675 0.982 6.324-1.839 8.065zm2.528 2.96c-1.163 0.355-1.546-0.028-1.156-1.156 1.107-0.369 1.49 0.021 1.156 1.156zm7.759-125.23c-0.014-1.985-0.042-3.977 0.146-5.954 0.877 1.846 1.323 3.851 1.407 5.899-0.391 0.014-1.163 0.041-1.553 0.055zm0.96 6.93c-0.146-1.1 0.871-1.832 1.602-2.493 1.003 8.58 0.954 17.251 0.683 25.859 0.39 0.641 0.794 1.295 1.205 1.964-4.153-1.462-0.896 1.51-3.49-25.33zm49.078 75.577c0.048 1.282 0.104 2.57 0.174 3.858-0.404-0.021-1.226-0.063-1.629-0.084 0.104-1.392 0.355-2.792 1.455-3.774zm-0.027 23.685c-1.038 0.118-1.031-1.623-0.39-2.089 0.974-0.132 0.94 1.609 0.39 2.089zm-4.486-21.791c1.365-0.787 1.95 2.263 0.634 2.472-1.01-0.285-1.358-1.748-0.634-2.472zm-2.319 10.3c2.299-7e-3 4.617-7e-3 6.95 0-7e-3 2.709-7e-3 5.411 0.028 8.12-2.319-0.341-4.666-0.369-6.978-0.508-0.021-2.542-0.021-5.077 0-7.612zm3.475 11.867c-1.191-0.021-2.354-0.042-3.482-0.056-0.035-0.919-0.035-1.839 0-2.751 1.616-7e-3 3.245-0.014 4.91-7e-3 -0.014 2.034-7e-3 4.095-0.432 6.108-1.497-0.306-3.001-0.529-4.478-0.697 0-0.299-7e-3 -0.898-7e-3 -1.205 1.128-0.021 2.292-0.042 3.496-0.056 0-0.333-7e-3 -1.001-7e-3 -1.336zm-9.004-23.908c3.123 1.515 1.818 0.863 3.559 1.435 0.3 1.936 0.522 3.886 1.128 5.766-1.602-0.028-3.183-0.042-4.735-0.049-0.022-2.388-0.029-4.77 0.048-7.152zm0.689 41.765c-0.439-3.399-0.982-6.79-0.745-10.224 1.602-7e-3 3.225 0 4.875 0 0 3.197 0 6.4 7e-3 9.597-1.414 0.154-2.786 0.335-4.137 0.627zm0.264-12.208c0.815-0.62 1.303-0.46 1.477 0.488-0.877 0.612-1.365 0.452-1.477-0.488zm0.349-8.984c0.453 0.599 0.947 1.212 1.455 1.825-0.438 1.4-0.48 2.841-0.083 4.255-0.69 0.306-1.344 0.613-1.978 0.919-0.376-4.987 0.647-10.126-0.794-14.987 1.581-0.481 3.231-0.592 4.91-0.634 0 2.549 0 5.105 0.014 7.661-1.198 0.334-2.368 0.661-3.524 0.961zm11.073 20.607c-2.291-0.258-4.575-0.084-6.832 0.174-0.042-4.2-0.028-8.399-0.014-12.598 2.299-7e-3 4.625-7e-3 6.957 0-0.362 4.13 0.572 8.364-0.111 12.424zm7e-3 -14.82c-0.975-0.146-1.135-0.634-0.488-1.476 0.913 0.132 1.073 0.626 0.488 1.476zm53.452 17.62c2.841 1.678 6.686 2.667 8.26 5.808-3.302-0.634-7.244-2.312-8.26-5.808zm4.303 0.808c1.978-0.23 4.36-0.292 4.569 2.305-1.72-0.39-3.204-1.275-4.569-2.305zm5.049 5.564c-0.042-2.096-0.042-4.186-0.021-6.268 2.535-0.021 5.091-0.035 7.66-0.014-0.014 2.103-0.021 4.206-7e-3 6.31-2.561-0.132-5.104-0.286-7.632-0.028zm20.378 8.497c-0.258-0.397-0.773-1.177-1.031-1.574 1.525 0.014 3.071 0.021 4.659 0.118-1.225 0.515-2.437 0.982-3.628 1.456zm4.325-1.379c0.425-0.606 2.18-0.627 2.089 0.376-0.522 0.592-2.242 0.62-2.089-0.376zm8.677 1.33c-1.845-0.404-3.684-0.773-5.529-0.954l-0.035-0.543c1.846 0 3.719 7e-3 5.606 7e-3 -0.014 0.376-0.035 1.114-0.042 1.49z"/> </svg>